<svg width="16" height="16" viewBox="0 0 16 16" xmlns="http://www.w3.org/2000/svg">
  <path fill="#424242"
    d="M14 4.1v1.45c-.38-.29-.83-.5-1.3-.6l-.01-2.5-2 1.5V2L6 5.3 4.5 4.3v2.15C3.2 6.84 2.3 8.04 2.3 9.5c0 1.02.43 1.95 1.13 2.63L2 13v-2.4c-.17.3-.28.61-.33.95v3.44l2.14-1.61c.82.39 1.75.62 2.74.62 1.1 0 2.13-.29 3.02-.79l2.43 1.83v-3.48c-.05-.32-.15-.62-.31-.9V13l-1.41-.86c.68-.68 1.1-1.59 1.1-2.59 0-1.03-.44-1.97-1.15-2.65L14 4.1zM8.26 9.5c0 .28.22.5.5.5s.5-.22.5-.5-.22-.5-.5-.5-.5.22-.5.5zM7.3 9c.28 0 .5-.22.5-.5s-.22-.5-.5-.5-.5.22-.5.5.22.5.5.5z" />
</svg>