<svg width="11108" height="1928" viewBox="0 0 11108 1928" fill="none" xmlns="http://www.w3.org/2000/svg">
<rect width="1928" height="1928" rx="200" fill="url(#paint0_linear_11_73)"/>
<g filter="url(#filter0_di_11_73)">
<path d="M328 1791.63C328 1777.06 316.193 1765.25 301.627 1765.25H212.614C185 1765.25 162.614 1742.87 162.614 1715.25V1626.31C162.614 1611.78 150.836 1600 136.307 1600V1600C121.778 1600 110 1611.78 110 1626.31V1768C110 1795.61 132.386 1818 160 1818H301.627C316.193 1818 328 1806.19 328 1791.63V1791.63Z" fill="white"/>
<path d="M1764.25 1715.39C1764.25 1743 1741.87 1765.39 1714.25 1765.39H1625.31C1610.78 1765.39 1599 1777.16 1599 1791.69V1791.69C1599 1806.22 1610.78 1818 1625.31 1818H1767C1794.61 1818 1817 1795.61 1817 1768V1626.37C1817 1611.81 1805.19 1600 1790.63 1600V1600C1776.06 1600 1764.25 1611.81 1764.25 1626.37V1715.39Z" fill="white"/>
<path d="M162.614 213.986C162.614 186.372 185 163.986 212.614 163.986H301.507C316.139 163.986 328 152.125 328 137.493V137.493C328 122.861 316.139 111 301.507 111H160C132.386 111 110 133.386 110 161V303.693C110 318.222 121.778 330 136.307 330V330C150.836 330 162.614 318.222 162.614 303.693V213.986Z" fill="white"/>
<path d="M1625.31 111C1610.78 111 1599 122.778 1599 137.308V137.308C1599 151.837 1610.78 163.615 1625.31 163.615H1714.25C1741.87 163.615 1764.25 186.001 1764.25 213.615V302.627C1764.25 317.193 1776.06 329 1790.63 329V329C1805.19 329 1817 317.193 1817 302.627V161C1817 133.386 1794.61 111 1767 111H1625.31Z" fill="white"/>
</g>
<g filter="url(#filter1_di_11_73)">
<path d="M496.355 231.461C517.055 210.771 550.607 210.775 571.301 231.47L794.069 454.25C854.568 433.822 923.911 447.519 972.113 495.733C1020.56 544.247 1034.16 614.186 1013.22 674.89L1264.05 925.725C1324.73 904.813 1394.74 918.323 1443.19 966.866C1510.94 1034.59 1510.94 1144.34 1443.19 1212.08C1375.44 1279.85 1265.7 1279.85 1197.91 1212.08C1146.98 1161.1 1134.38 1086.25 1160.18 1023.49L926.259 789.562L926.239 1405.15C942.754 1413.32 958.34 1424.24 972.103 1437.94C1039.83 1505.66 1039.83 1615.38 972.103 1683.21C904.36 1750.93 794.573 1750.93 726.903 1683.21C659.17 1615.39 659.17 1505.66 726.903 1437.94C743.642 1421.23 763.01 1408.58 783.677 1400.1V778.798C763 770.356 743.654 757.802 726.891 740.958C675.586 689.69 663.23 614.388 689.542 551.384L470.477 332.274C449.78 311.572 449.785 278.011 470.489 257.316L496.355 231.461Z" fill="white"/>
</g>
<g filter="url(#filter2_d_11_73)">
<path d="M2927.56 1700C2828.99 1700 2739.88 1681.09 2660.21 1643.27C2581.22 1604.77 2514.73 1551.75 2460.72 1484.21C2407.38 1416 2369.24 1337.32 2346.28 1248.16C2323.33 1159.01 2318.94 1064.12 2333.12 963.487C2347.97 857.451 2380.38 759.857 2430.34 670.705C2480.97 581.554 2543.76 504.222 2618.69 438.709C2693.63 372.52 2775.66 321.191 2864.77 284.72C2953.89 248.249 3044.69 230.013 3137.18 230.013C3241.83 230.013 3338.7 254.327 3427.82 302.955C3483.51 333.113 3533.09 372.623 3576.57 421.485C3621.22 471.654 3598.64 547.524 3538.7 577.807V577.807C3486.4 604.227 3423.93 585.678 3380.93 545.88C3355.25 522.117 3327 502.264 3296.17 486.324C3236.76 455.256 3173.3 439.722 3105.79 439.722C3040.3 439.722 2976.17 453.23 2913.38 480.245C2851.27 506.585 2794.22 543.732 2742.24 591.685C2690.26 638.962 2646.71 694.682 2611.61 758.844C2576.5 822.33 2553.88 891.558 2543.76 966.526C2533.63 1038.79 2536.67 1106.67 2552.87 1170.16C2569.07 1233.64 2596.08 1289.36 2633.88 1337.32C2672.37 1384.59 2719.29 1421.74 2774.65 1448.75C2830 1475.77 2891.44 1489.28 2958.95 1489.28C3008.91 1489.28 3057.86 1481.17 3105.79 1464.96C3154.4 1448.75 3200.31 1425.79 3243.51 1396.07C3287.4 1365.68 3327.23 1329.55 3363.01 1287.67C3398.79 1245.8 3428.83 1199.2 3453.14 1147.87H3259.67C3203.01 1147.87 3159.45 1097.73 3167.38 1041.63V1041.63C3173.87 995.647 3213.23 961.461 3259.67 961.461H3556.25C3646.97 961.461 3717.97 1042.24 3687.73 1127.77C3673.25 1168.7 3655.48 1208.5 3634.41 1247.15C3586.47 1336.3 3525.71 1414.99 3452.12 1483.2C3378.54 1550.74 3296.85 1603.76 3207.06 1642.25C3117.27 1680.75 3024.1 1700 2927.56 1700Z" fill="white"/>
<path d="M3944.35 750.421C3951.56 698.904 3995.63 660.574 4047.65 660.574V660.574C4111 660.574 4159.72 716.59 4150.94 779.332L4038.36 1583.81C4031.15 1635.33 3987.08 1673.66 3935.07 1673.66V1673.66C3871.71 1673.66 3822.99 1617.64 3831.77 1554.9L3944.35 750.421ZM4084.52 513.677C4052.79 513.677 4027.48 503.208 4008.57 482.271C3989.67 461.334 3982.58 434.994 3987.31 403.251C3992.03 372.183 4006.55 346.18 4030.85 325.243C4055.83 303.631 4083.85 292.824 4114.9 292.824C4145.96 292.824 4170.94 303.631 4189.84 325.243C4208.74 346.18 4215.83 372.183 4211.11 403.251C4206.38 434.994 4191.87 461.334 4167.56 482.271C4143.93 503.208 4116.25 513.677 4084.52 513.677Z" fill="white"/>
<path d="M4927.84 780.479C4920.58 832.545 4876.06 871.296 4823.49 871.296H4702.52L4601.78 1583.97C4594.51 1635.42 4550.48 1673.66 4498.53 1673.66V1673.66C4435.13 1673.66 4386.4 1617.56 4395.27 1554.78L4491.89 871.296H4451.93C4387.96 871.296 4338.75 814.752 4347.58 751.392V751.392C4354.84 699.325 4399.36 660.574 4451.93 660.574H4521.25L4552.45 432.659C4559.53 380.982 4603.67 342.466 4655.83 342.466V342.466C4719.09 342.466 4767.79 398.293 4759.21 460.962L4731.89 660.574H4823.49C4887.46 660.574 4936.67 717.119 4927.84 780.479V780.479Z" fill="white"/>
<path d="M5636.24 1700C5540.37 1700 5452.95 1681.09 5373.96 1643.27C5294.97 1604.77 5228.13 1552.09 5173.45 1485.23C5119.44 1417.69 5080.62 1339.34 5056.99 1250.19C5033.36 1161.04 5028.64 1065.81 5042.81 964.5C5056.99 863.191 5088.38 767.961 5136.99 678.81C5185.6 589.658 5246.36 511.651 5319.27 444.787C5392.86 377.248 5474.55 324.568 5564.34 286.746C5654.13 248.249 5746.96 229 5842.82 229C5957.59 229 6059.2 255.678 6147.64 309.034C6200.63 340.76 6246.93 378.694 6286.56 422.838C6330.85 472.185 6308.04 546.781 6248.68 576.327V576.327C6196.33 602.38 6133.86 583.231 6090.4 544.109C6067.33 523.343 6041.51 505.094 6012.95 489.363C5952.87 456.269 5886.37 439.722 5813.46 439.722C5745.95 439.722 5680.8 453.567 5618.01 481.258C5555.23 508.949 5498.18 546.771 5446.87 594.724C5395.56 642.677 5353.03 698.396 5319.27 761.883C5285.52 825.37 5263.58 892.909 5253.45 964.5C5243.32 1036.77 5246.36 1104.64 5262.56 1168.13C5278.77 1230.94 5305.77 1286.66 5343.58 1335.29C5381.38 1383.24 5427.63 1421.06 5482.31 1448.75C5537.67 1475.77 5598.77 1489.28 5665.61 1489.28C5740.55 1489.28 5812.44 1472.73 5881.31 1439.64C5925.08 1418.17 5965.17 1392.34 6001.57 1362.14C6038.15 1331.8 6089.85 1323.22 6130.76 1347.4V1347.4C6184.49 1379.15 6196.74 1452.11 6150.21 1493.7C6094.32 1543.65 6032.37 1586.07 5964.35 1620.98C5860.38 1673.66 5751.01 1700 5636.24 1700Z" fill="white"/>
<path d="M6782.43 1700C6689.26 1700 6607.57 1676.02 6537.36 1628.07C6467.82 1580.12 6415.84 1515.96 6381.41 1435.58C6347.65 1354.54 6337.53 1265.05 6351.03 1167.12C6361.16 1092.82 6383.77 1023.6 6418.88 959.435C6454.66 894.597 6499.22 837.864 6552.55 789.236C6605.88 739.933 6664.96 701.436 6729.77 673.745C6795.25 646.054 6862.77 632.208 6932.3 632.208C7025.47 632.208 7106.82 656.184 7176.36 704.137C7246.57 752.09 7298.89 816.59 7333.32 897.636C7367.75 978.683 7377.88 1068.51 7363.7 1167.12C7353.58 1240.73 7330.62 1309.62 7294.84 1373.79C7259.73 1437.95 7215.51 1494.68 7162.18 1543.98C7108.85 1592.61 7049.77 1630.77 6984.96 1658.46C6920.15 1686.15 6852.64 1700 6782.43 1700ZM6811.8 1489.28C6867.83 1489.28 6920.15 1474.42 6968.76 1444.7C7017.37 1414.99 7058.21 1375.81 7091.29 1327.18C7125.05 1277.88 7145.64 1224.53 7153.07 1167.12C7161.17 1108.36 7155.43 1054.33 7135.85 1005.02C7116.27 955.72 7086.23 916.547 7045.72 887.506C7005.22 857.788 6957.62 842.93 6902.94 842.93C6847.58 842.93 6795.26 857.788 6745.97 887.506C6697.36 917.223 6656.52 956.733 6623.44 1006.04C6590.36 1055.34 6569.77 1109.03 6561.67 1167.12C6553.56 1227.23 6559.3 1281.6 6578.88 1330.22C6599.13 1378.85 6629.51 1417.69 6670.02 1446.73C6710.53 1475.09 6757.79 1489.28 6811.8 1489.28Z" fill="white"/>
<path d="M7576.4 1673.66C7513.01 1673.66 7464.27 1617.62 7473.05 1554.85L7585.64 750.344C7592.84 698.871 7636.87 660.574 7688.84 660.574H7700.38C7757.65 660.574 7801.67 711.256 7793.65 767.961V767.961C7834.83 726.087 7882.42 692.993 7936.43 668.679C7991.12 644.365 8048.16 632.208 8107.57 632.208C8179.81 632.208 8243.61 649.768 8298.97 684.888C8355 719.333 8396.86 765.26 8424.54 822.668C8468.42 765.26 8522.77 719.333 8587.58 684.888C8652.39 649.768 8720.92 632.208 8793.15 632.208C8868.09 632.208 8933.58 650.444 8989.61 686.915C9046.32 723.386 9088.52 772.351 9116.2 833.812C9144.55 895.272 9152.99 963.487 9141.51 1038.46L9065.88 1583.79C9058.73 1635.31 9014.69 1673.66 8962.68 1673.66V1673.66C8899.36 1673.66 8850.68 1617.63 8859.52 1554.93L8924.8 1092.15C8930.88 1047.57 8925.48 1006.71 8908.6 969.565C8892.4 932.419 8867.42 902.364 8833.66 879.401C8800.58 856.438 8761.76 844.956 8717.2 844.956C8672.65 844.956 8630.45 855.762 8590.62 877.375C8551.46 898.987 8518.38 928.367 8491.38 965.513C8465.05 1002.66 8448.51 1044.87 8441.76 1092.15L8373.27 1583.74C8366.09 1635.29 8322 1673.66 8269.96 1673.66V1673.66C8206.62 1673.66 8157.9 1617.68 8166.64 1554.96L8231.12 1092.15C8237.87 1044.87 8232.81 1002.66 8215.93 965.513C8199.73 928.367 8174.75 898.987 8140.99 877.375C8107.24 855.762 8068.08 844.956 8023.52 844.956C7979.64 844.956 7937.78 856.438 7897.95 879.401C7858.79 902.364 7825.71 932.419 7798.71 969.565C7771.7 1006.71 7755.16 1047.57 7749.09 1092.15L7679.72 1583.88C7672.46 1635.37 7628.4 1673.66 7576.4 1673.66V1673.66Z" fill="white"/>
<path d="M9886.19 337.898C9911.67 287.278 9963.5 255.34 10020.2 255.34H10053.6C10123.9 255.34 10184.7 304.079 10200 372.625L10461.2 1541.14C10476.4 1609.11 10424.7 1673.66 10355 1673.66V1673.66C10304.1 1673.66 10260.1 1638.41 10248.9 1588.79L10207.2 1404.18H9573.31L9465.31 1618.66C9448.32 1652.38 9413.79 1673.66 9376.03 1673.66V1673.66C9301.61 1673.66 9253.28 1595.24 9286.75 1528.76L9886.19 337.898ZM9679.64 1193.46H10159.6L10011.8 534.952L9679.64 1193.46Z" fill="url(#paint1_linear_11_73)"/>
<path d="M10818.8 1673.66C10755.4 1673.66 10706.7 1617.64 10715.5 1554.9L10884.8 345.187C10892 293.67 10936.1 255.34 10988.1 255.34V255.34C11051.4 255.34 11100.2 311.356 11091.4 374.098L10922.1 1583.81C10914.9 1635.33 10870.8 1673.66 10818.8 1673.66V1673.66Z" fill="url(#paint2_linear_11_73)"/>
</g>
<defs>
<filter id="filter0_di_11_73" x="102.8" y="103.8" width="1721.4" height="1721.4" filterUnits="userSpaceOnUse" color-interpolation-filters="sRGB">
<feFlood flood-opacity="0" result="BackgroundImageFix"/>
<feColorMatrix in="SourceAlpha" type="matrix" values="0 0 0 0 0 0 0 0 0 0 0 0 0 0 0 0 0 0 127 0" result="hardAlpha"/>
<feOffset/>
<feGaussianBlur stdDeviation="3.6"/>
<feComposite in2="hardAlpha" operator="out"/>
<feColorMatrix type="matrix" values="0 0 0 0 0 0 0 0 0 0 0 0 0 0 0 0 0 0 0.5 0"/>
<feBlend mode="normal" in2="BackgroundImageFix" result="effect1_dropShadow_11_73"/>
<feBlend mode="normal" in="SourceGraphic" in2="effect1_dropShadow_11_73" result="shape"/>
<feColorMatrix in="SourceAlpha" type="matrix" values="0 0 0 0 0 0 0 0 0 0 0 0 0 0 0 0 0 0 127 0" result="hardAlpha"/>
<feOffset/>
<feGaussianBlur stdDeviation="5.7"/>
<feComposite in2="hardAlpha" operator="arithmetic" k2="-1" k3="1"/>
<feColorMatrix type="matrix" values="0 0 0 0 0 0 0 0 0 0 0 0 0 0 0 0 0 0 1 0"/>
<feBlend mode="normal" in2="shape" result="effect2_innerShadow_11_73"/>
</filter>
<filter id="filter1_di_11_73" x="447.758" y="208.746" width="1053.44" height="1532.45" filterUnits="userSpaceOnUse" color-interpolation-filters="sRGB">
<feFlood flood-opacity="0" result="BackgroundImageFix"/>
<feColorMatrix in="SourceAlpha" type="matrix" values="0 0 0 0 0 0 0 0 0 0 0 0 0 0 0 0 0 0 127 0" result="hardAlpha"/>
<feOffset/>
<feGaussianBlur stdDeviation="3.6"/>
<feComposite in2="hardAlpha" operator="out"/>
<feColorMatrix type="matrix" values="0 0 0 0 0 0 0 0 0 0 0 0 0 0 0 0 0 0 0.5 0"/>
<feBlend mode="normal" in2="BackgroundImageFix" result="effect1_dropShadow_11_73"/>
<feBlend mode="normal" in="SourceGraphic" in2="effect1_dropShadow_11_73" result="shape"/>
<feColorMatrix in="SourceAlpha" type="matrix" values="0 0 0 0 0 0 0 0 0 0 0 0 0 0 0 0 0 0 127 0" result="hardAlpha"/>
<feOffset/>
<feGaussianBlur stdDeviation="5.7"/>
<feComposite in2="hardAlpha" operator="arithmetic" k2="-1" k3="1"/>
<feColorMatrix type="matrix" values="0 0 0 0 0 0 0 0 0 0 0 0 0 0 0 0 0 0 1 0"/>
<feBlend mode="normal" in2="shape" result="effect2_innerShadow_11_73"/>
</filter>
<filter id="filter2_d_11_73" x="2321" y="229" width="8775.41" height="1479" filterUnits="userSpaceOnUse" color-interpolation-filters="sRGB">
<feFlood flood-opacity="0" result="BackgroundImageFix"/>
<feColorMatrix in="SourceAlpha" type="matrix" values="0 0 0 0 0 0 0 0 0 0 0 0 0 0 0 0 0 0 127 0" result="hardAlpha"/>
<feOffset dy="4"/>
<feGaussianBlur stdDeviation="2"/>
<feComposite in2="hardAlpha" operator="out"/>
<feColorMatrix type="matrix" values="0 0 0 0 0 0 0 0 0 0 0 0 0 0 0 0 0 0 0.5 0"/>
<feBlend mode="normal" in2="BackgroundImageFix" result="effect1_dropShadow_11_73"/>
<feBlend mode="normal" in="SourceGraphic" in2="effect1_dropShadow_11_73" result="shape"/>
</filter>
<linearGradient id="paint0_linear_11_73" x1="-334.825" y1="670.876" x2="1421.98" y2="1804.57" gradientUnits="userSpaceOnUse">
<stop stop-color="#A445B2"/>
<stop offset="0.52" stop-color="#D41872"/>
<stop offset="1" stop-color="#FF0066"/>
</linearGradient>
<linearGradient id="paint1_linear_11_73" x1="799.707" y1="740.856" x2="1515.09" y2="3497.25" gradientUnits="userSpaceOnUse">
<stop stop-color="#A445B2"/>
<stop offset="0.52" stop-color="#D41872"/>
<stop offset="1" stop-color="#FF0066"/>
</linearGradient>
<linearGradient id="paint2_linear_11_73" x1="799.707" y1="740.856" x2="1515.09" y2="3497.25" gradientUnits="userSpaceOnUse">
<stop stop-color="#A445B2"/>
<stop offset="0.52" stop-color="#D41872"/>
<stop offset="1" stop-color="#FF0066"/>
</linearGradient>
</defs>
</svg>
